<svg id="Capa_1" data-name="Capa 1" xmlns="http://www.w3.org/2000/svg" viewBox="0 0 488.73 571.42"><defs><style>.cls-1{opacity:0.2;}.cls-2{fill:#271d24;}.cls-3{fill:#a16552;}.cls-4{fill:#f5dcb4;}.cls-5{fill:#473835;}.cls-6{fill:#f9ab6d;}.cls-7{fill:#ac752c;}.cls-8{fill:#7d551f;}.cls-9{fill:#ffb300;}.cls-10{fill:#ffd54f;}.cls-11{fill:#c8653b;}.cls-12{fill:#c8c8c8;}.cls-13{fill:#9c4f2e;}.cls-14{fill:#ffedd9;}.cls-15{fill:#4e3f3f;}.cls-16{fill:#fff;}</style></defs><g class="cls-1"><ellipse class="cls-2" cx="251.7" cy="544.6" rx="66.57" ry="16.03"/></g><g class="cls-1"><ellipse class="cls-2" cx="251.7" cy="544.6" rx="109.18" ry="26.3"/></g><rect class="cls-3" x="230.57" y="251.63" width="38.49" height="66.57"/><path class="cls-3" d="M315.8,328.18V450.8A47.16,47.16,0,0,1,314.2,463a45.85,45.85,0,0,1-2.76,7.68,46.79,46.79,0,0,1-10.94,15c-.4.38-.8.75-1.21,1.09A47.58,47.58,0,0,1,268.4,498.2H231.25a47,47,0,0,1-22.08-5.47,47.2,47.2,0,0,1-15-12.43c-.44-.54-.87-1.08-1.27-1.64a48.11,48.11,0,0,1-5-8.7,49.18,49.18,0,0,1-2.45-7,48,48,0,0,1-1.58-12.19V328.18a35.7,35.7,0,0,1,35.7-35.72h60.53A35.71,35.71,0,0,1,315.8,328.18Z"/><path class="cls-4" d="M284.2,318.91c-21.88,7.28-44.71,7.51-68.62-.29a14.18,14.18,0,0,0-18.65,13.43V445.29a36.31,36.31,0,0,0,36.31,36.32H266.4a36.32,36.32,0,0,0,36.31-36.32V332.4A14.14,14.14,0,0,0,284.2,318.91Z"/><path class="cls-3" d="M312.61,535.76c-1,0-2.11,0-3.17,0,.42-1.57,1-3.59,1.8-6.19,3-9.74-.32-21.65-4-30.62-1.21-2.94-2.46-5.55-3.55-7.68-1.18-2.31-2.19-4-2.73-5a7.31,7.31,0,0,0-.43-.65,9.6,9.6,0,0,0-16.59,9.49c0,.13.11.25.17.38l.34.62a78.5,78.5,0,0,1,5,10.29c2.71,6.59,4.59,13.66,3.42,17.54-3.83,12.55-6.38,20.85.57,27.07,1.64,1.46,4.67,4.17,19.47,3.94a9.61,9.61,0,0,0-.31-19.21Z"/><path class="cls-3" d="M205.27,512.46a11.68,11.68,0,0,1-.57-6.5,42.66,42.66,0,0,1,4.47-13.23c.4-.77.79-1.46,1.19-2.12a10.22,10.22,0,0,0,1.06-2.46,9.59,9.59,0,0,0-17.25-7.85,2.26,2.26,0,0,0-.2.26,61.18,61.18,0,0,0-3.41,6.52,62.14,62.14,0,0,0-4,11.54c-1.65,7-2,15,1.42,22.14A110.07,110.07,0,0,1,192.69,532c-1.19.23-2.4.44-3.56.6a9.61,9.61,0,1,0,2.56,19c14.64-2,17.23-5.13,18.63-6.8C214.3,540,215,532.71,205.27,512.46Z"/><rect class="cls-5" x="213.43" y="290.38" width="13.95" height="47.36"/><rect class="cls-5" x="272.26" y="290.38" width="13.95" height="47.36"/><path class="cls-5" d="M323.48,432.53c0,1.16,0,2.31-.06,3.46a146.09,146.09,0,0,1-12.1,54.89l-3.38,7.74-.73.31-17.75,7.49a78.5,78.5,0,0,0-5-10.29l-.34-.62a46.53,46.53,0,0,1-15.68,2.69H231.25a47,47,0,0,1-22.08-5.47A42.66,42.66,0,0,0,204.7,506l-18.16-7.34L182,483c-1.18-4-2.17-8.1-3-12.2a146.65,146.65,0,0,1-2.84-28.68v-9.59a146.15,146.15,0,0,1,12.5-59.13L202.6,342a7.08,7.08,0,0,1,6.46-4.21h81.53a7.09,7.09,0,0,1,6.46,4.21L311,373.4a145.69,145.69,0,0,1,12.5,59.13Z"/><rect class="cls-2" x="220.41" y="361.46" width="60.09" height="44.32"/><rect class="cls-2" x="176.15" y="432.47" width="147.34" height="7.06"/><path class="cls-2" d="M244.81,436v34.81h0a11.3,11.3,0,0,0,11.29-11.29V436Z"/><path class="cls-2" d="M323.42,436a145,145,0,0,1-5.05,34.81h0a34.2,34.2,0,0,1-34.21-34.21V436Z"/><path class="cls-2" d="M215.47,436v.6a34.21,34.21,0,0,1-34.21,34.21H179a146.65,146.65,0,0,1-2.84-28.68V436Z"/><circle class="cls-6" cx="218.72" cy="346.39" r="5.64"/><circle class="cls-6" cx="279.23" cy="346.39" r="5.64"/><path class="cls-3" d="M143.08,431.69l-.59,0-9.44-.56a9.61,9.61,0,1,1,1.15-19.18l.38,0L140,365a9.67,9.67,0,0,1,2.49-5.41l54.12-58.63a9.61,9.61,0,1,1,14.12,13l-52,56.34-6.15,52.91A9.61,9.61,0,0,1,143.08,431.69Z"/><path class="cls-3" d="M351.5,375.67a9.65,9.65,0,0,1-7.06-3.09l-54.13-58.64a9.61,9.61,0,1,1,14.12-13l41.34,44.78,12.89-64.55a9.6,9.6,0,0,1,6.91-7.4l17.15-4.63a9.61,9.61,0,0,1,5,18.55l-11.4,3.08-15.41,77.2a9.61,9.61,0,0,1-9.42,7.73Z"/><path class="cls-7" d="M144.24,489.67l3.07-5.89,6.54,3.4c.68.36.72,1.62.09,2.82l-.8,1.54c-.62,1.2-1.68,1.89-2.36,1.54Z"/><path class="cls-8" d="M144.24,489.67l1.54-2.94,7.76,4-.4.77c-.62,1.2-1.68,1.89-2.36,1.54Z"/><path class="cls-9" d="M140.28,489.85a37.71,37.71,0,0,1-5.06-66,12.86,12.86,0,0,1,4.6-1.46,5.09,5.09,0,0,1,3.22.67h0a3.7,3.7,0,0,1,.29.24h0a2.26,2.26,0,0,1,.23.29c.52.82.41,2.1,0,3.55-1,3.17-3.52,7.15-4.4,8.95v0c-.23.42-.46.86-.67,1.29l0,.07c-.23.48-.46,1-.67,1.44-.07.14-.13.29-.19.43l-.17.39-.15.39-.21.52c-.13.34-.26.68-.37,1s-.14.39-.21.59c-.18.54-.35,1.08-.5,1.62-.05.17-.1.34-.14.51s-.09.35-.13.51c-.13.52-.25,1-.36,1.55a.36.36,0,0,0,0,.1l0,.14c-.16.76-.28,1.52-.39,2.28s-.18,1.44-.24,2.16a2.46,2.46,0,0,1,0,.28v.12c0,.47,0,.95-.07,1.44v.14a1.09,1.09,0,0,0,0,.18,37.91,37.91,0,0,0,.13,4.13c0,.27,0,.53.08.79s.05.5.08.76l0,.13.06.42c.05.41.12.83.2,1.24l.11.63c.06.32.13.63.2.95l.09.37c.09.43.2.86.32,1.29a36.82,36.82,0,0,0,2,5.59l0,.09c.31.69.64,1.38,1,2.05q.24.47.51.93c.13.25.28.5.42.75l.08.13c.32.53.65,1.06,1,1.57a37.43,37.43,0,0,0,6.82,7.69l.87.71h0l.19.22.11.15.06.08.06.09a4.74,4.74,0,0,1,.83,2.72,4.9,4.9,0,0,1-1.12,2.86h0a3.92,3.92,0,0,1-3.12,1.4A13.38,13.38,0,0,1,140.28,489.85Z"/><path class="cls-10" d="M148.69,489.66l-.06,0a37.3,37.3,0,0,1-8.82-5.23l-1.08-.89a37.69,37.69,0,0,1,2.56-59.23c.36-.26.72-.51,1.08-.74l.69-.46a3.7,3.7,0,0,1,.29.24h0a2.26,2.26,0,0,1,.23.29c.52.82.41,2.1,0,3.55-1,3.17-3.52,7.15-4.4,8.95v0c-.23.42-.46.86-.67,1.29l0,.07c-.23.48-.46,1-.67,1.44l-.07.13-.12.3-.17.39-.15.39-.21.52c-.13.34-.25.68-.37,1s-.14.39-.21.59-.22.68-.32,1l-.18.6c0,.17-.09.34-.14.51s-.09.35-.13.51c-.13.52-.25,1-.36,1.55a.36.36,0,0,0,0,.1l0,.14c0,.14,0,.27-.08.41-.12.62-.22,1.24-.31,1.87s-.15,1.25-.21,1.88l0,.28a2.46,2.46,0,0,1,0,.28v.12c0,.29,0,.59,0,.89l0,.55v.14a1.09,1.09,0,0,0,0,.18c0,.27,0,.53,0,.79s0,.39,0,.58v.26l0,.82c0,.26,0,.51,0,.77l.06.91c0,.26,0,.52.08.79s.05.5.08.76l0,.13.06.42c.05.41.12.83.2,1.24l.11.63c.06.32.13.63.2.95l.09.37c0,.12,0,.24.09.37.07.3.14.61.23.92s.14.5.21.76.17.58.27.88l.15.44c0,.12.07.24.11.36s.19.52.29.79.19.54.3.81.18.43.26.64l.39.91,0,.09c.13.28.26.56.4.84s.17.36.26.53.22.45.34.68.21.39.32.58a3.9,3.9,0,0,0,.19.35c.13.25.28.5.42.75l.08.13.37.6.31.48.32.49.47.69.26.36c.21.29.42.59.64.87l.45.57.67.83.48.55c.24.27.48.54.74.81l.47.51c.28.3.57.58.86.86l.34.33a1.59,1.59,0,0,1,.13.13c.43.4.87.8,1.31,1.18l.87.71h0l.19.22.11.15.06.08.06.09a4.74,4.74,0,0,1,.83,2.72A4.9,4.9,0,0,1,148.69,489.66Z"/><path class="cls-8" d="M143.56,427.17a6.11,6.11,0,0,0-3.74-4.77,5.09,5.09,0,0,1,3.22.67h0a3.7,3.7,0,0,1,.29.24h0a2.26,2.26,0,0,1,.23.29C144.11,424.44,144,425.72,143.56,427.17Z"/><path class="cls-9" d="M142.46,492.42a37.71,37.71,0,0,1-38.93-53.53,13,13,0,0,1,3.15-3.66,5.15,5.15,0,0,1,3.09-1.12h0a2.21,2.21,0,0,1,.37,0h0a1.48,1.48,0,0,1,.35.13c.88.42,1.45,1.57,1.83,3,.85,3.21.77,7.94,1,9.93v0c0,.48.06,1,.1,1.45a.25.25,0,0,1,0,.08c0,.53.11,1.06.18,1.58,0,.16,0,.32.07.47l.06.42c0,.13.05.27.07.41s.06.37.1.55c.06.36.13.71.21,1.07,0,.2.09.4.14.6.13.56.27,1.1.43,1.65,0,.17.09.34.14.5s.11.35.16.51c.16.51.32,1,.5,1.5,0,0,0,.07,0,.11l0,.13c.26.73.56,1.44.87,2.14s.6,1.32.93,2l.13.25,0,.1q.33.63.69,1.26a.83.83,0,0,1,.07.13l.09.15a36.75,36.75,0,0,0,2.28,3.45c.15.22.32.43.48.63s.31.4.47.6l.08.1.28.33c.26.33.53.64.81,1l.43.47.67.71.26.26c.31.32.63.63,1,.94a37.71,37.71,0,0,0,4.62,3.71l.09.06c.63.43,1.27.83,1.92,1.22.3.18.61.36.93.53l.75.41.14.07c.55.29,1.1.56,1.67.81a37.45,37.45,0,0,0,9.84,3l1.11.15h0l.29.09.17.06.09,0,.1,0a4.61,4.61,0,0,1,2.13,1.88,4.82,4.82,0,0,1,.55,3h0a3.94,3.94,0,0,1-1.92,2.83A13.49,13.49,0,0,1,142.46,492.42Z"/><path class="cls-10" d="M149.52,487.84h-.07a37.66,37.66,0,0,1-10.24.17c-.46,0-.93-.12-1.39-.19a37.68,37.68,0,0,1-28.9-51.77c.17-.4.35-.8.53-1.2s.23-.5.35-.74a2.21,2.21,0,0,1,.37,0h0a1.48,1.48,0,0,1,.35.13c.88.42,1.45,1.57,1.83,3,.85,3.21.77,7.94,1,9.93v0c0,.48.06,1,.1,1.45a.25.25,0,0,1,0,.08c0,.53.11,1.06.18,1.58,0,.05,0,.1,0,.15a3.06,3.06,0,0,0,.05.32l.06.42c0,.14.05.27.07.41s.06.37.1.55l.21,1.07c0,.2.09.4.14.6s.17.7.26,1,.11.4.17.61.09.34.14.5.11.35.16.51c.16.51.32,1,.5,1.5,0,0,0,.07,0,.11l0,.13.15.39c.22.59.46,1.17.72,1.75s.52,1.15.8,1.71c0,.09.09.17.13.26l.13.25,0,.1c.14.26.28.52.43.78l.26.48a.83.83,0,0,1,.07.13l.09.15c.14.23.27.46.41.68s.2.33.31.49l.14.22.45.69.44.63c.17.24.35.5.53.74l.48.63.47.6.08.1.28.33c.26.33.53.64.81,1l.43.47.67.71.26.26.27.27.68.67.59.52c.22.21.45.42.69.62l.36.3.28.24.66.53.68.52.56.41c.27.19.53.39.8.57l.09.06.78.51.5.32.64.39.58.33.35.2.75.41.14.07.63.32.51.24.53.25.76.34.41.17,1,.41.67.25,1,.35.7.22c.34.1.7.21,1.06.3l.67.19,1.18.28.45.1.19,0c.57.12,1.15.23,1.73.32l1.11.15h0l.29.09.17.06.09,0,.1,0a4.61,4.61,0,0,1,2.13,1.88A4.82,4.82,0,0,1,149.52,487.84Z"/><path class="cls-8" d="M112.36,437.33a6.1,6.1,0,0,0-5.68-2.1,5.15,5.15,0,0,1,3.09-1.12h0a2.21,2.21,0,0,1,.37,0h0a1.48,1.48,0,0,1,.35.13C111.41,434.72,112,435.87,112.36,437.33Z"/><path class="cls-7" d="M114,430.32l-1.23,6.54-7.25-1.37c-.75-.14-1.15-1.34-.9-2.67l.32-1.7c.25-1.34,1.07-2.3,1.82-2.16Z"/><path class="cls-8" d="M114,430.32l-.61,3.27L104.76,432l.16-.85c.25-1.34,1.07-2.3,1.82-2.16Z"/><path class="cls-9" d="M117.73,429a37.72,37.72,0,0,1,29.64,52.57,37.35,37.35,0,0,1-5.7,9.14,13,13,0,0,1-4,2.72,5,5,0,0,1-3.27.3h0a2.83,2.83,0,0,1-.35-.14h0a1.61,1.61,0,0,1-.3-.21c-.74-.64-1-1.89-1-3.41,0-3.31,1.29-7.87,1.62-9.84v0c.1-.47.19-.95.27-1.43a.31.31,0,0,1,0-.08c.08-.52.16-1.05.22-1.57l.06-.47,0-.42c0-.14,0-.28,0-.42s0-.37.05-.55c0-.37.05-.73.06-1.09,0-.21,0-.42,0-.62,0-.57,0-1.13,0-1.7,0-.18,0-.35,0-.53s0-.36,0-.53c0-.53-.06-1.05-.11-1.58a.4.4,0,0,0,0-.11l0-.14c-.07-.77-.17-1.53-.29-2.29s-.24-1.43-.4-2.14a2.8,2.8,0,0,0-.06-.28l0-.1c-.11-.47-.22-.94-.35-1.41l0-.13a1.21,1.21,0,0,1-.05-.18,37.42,37.42,0,0,0-1.32-3.91c-.1-.25-.2-.5-.31-.74s-.19-.46-.29-.7l-.06-.11-.18-.39c-.17-.39-.36-.76-.54-1.14l-.3-.56-.46-.86-.19-.32c-.22-.39-.45-.77-.68-1.15a36.87,36.87,0,0,0-3.52-4.77l-.07-.08c-.49-.57-1-1.13-1.54-1.67l-.76-.75-.62-.58-.12-.11c-.46-.42-.92-.82-1.41-1.21a37.35,37.35,0,0,0-8.76-5.39l-1-.43h0l-.25-.16-.15-.11-.08-.06-.08-.07a4.62,4.62,0,0,1-1.58-2.37,4.89,4.89,0,0,1,.24-3.05h0a3.94,3.94,0,0,1,2.58-2.24A13.6,13.6,0,0,1,117.73,429Z"/><path class="cls-10" d="M109.73,431.63h.07a37.85,37.85,0,0,1,10,2.46l1.29.54a37.69,37.69,0,0,1,14.7,57.43c-.26.35-.54.69-.81,1s-.36.43-.53.64a2.83,2.83,0,0,1-.35-.14h0a1.61,1.61,0,0,1-.3-.21c-.74-.64-1-1.89-1-3.41,0-3.31,1.29-7.87,1.62-9.84v0c.1-.47.19-.95.27-1.43a.31.31,0,0,1,0-.08c.08-.52.16-1.05.22-1.57a.77.77,0,0,0,0-.15c0-.11,0-.22,0-.32l0-.42c0-.14,0-.28,0-.42s0-.37.05-.55l.06-1.09c0-.21,0-.42,0-.62,0-.36,0-.72,0-1.07s0-.42,0-.63,0-.35,0-.53,0-.36,0-.53c0-.53-.06-1.05-.11-1.58a.4.4,0,0,0,0-.11l0-.14c0-.14,0-.27,0-.41-.07-.63-.15-1.26-.25-1.88s-.21-1.24-.34-1.86l-.06-.28a2.8,2.8,0,0,0-.06-.28l0-.1c-.07-.3-.14-.58-.22-.87s-.08-.36-.13-.54l0-.13a1.21,1.21,0,0,1-.05-.18l-.22-.76c-.06-.18-.12-.37-.17-.55a2.41,2.41,0,0,1-.08-.25l-.27-.78c-.08-.24-.17-.48-.26-.72s-.21-.57-.32-.85-.2-.49-.31-.74-.19-.46-.29-.7l-.06-.11-.18-.39c-.17-.39-.36-.76-.54-1.14l-.3-.56-.46-.86-.19-.32-.2-.33c-.16-.27-.31-.55-.48-.82l-.43-.66c-.17-.26-.33-.51-.51-.77l-.27-.38-.21-.3c-.17-.23-.33-.46-.5-.68L127,449c-.14-.18-.29-.35-.44-.53s-.41-.51-.63-.76l-.07-.08-.62-.69c-.13-.14-.26-.29-.4-.43s-.35-.37-.52-.55l-.48-.47c-.09-.09-.18-.19-.28-.28l-.62-.58-.12-.11-.53-.46-.43-.38-.45-.37c-.21-.18-.43-.35-.65-.52l-.35-.27-.87-.65-.59-.42-.89-.6-.61-.39c-.31-.19-.62-.38-.95-.56s-.39-.24-.6-.35-.71-.39-1.07-.58l-.41-.21-.17-.09c-.52-.26-1.06-.51-1.6-.75l-1-.43h0l-.25-.16-.15-.11-.08-.06-.08-.07a4.62,4.62,0,0,1-1.58-2.37A4.89,4.89,0,0,1,109.73,431.63Z"/><path class="cls-8" d="M132.74,490a6.07,6.07,0,0,0,4.95,3.48,5,5,0,0,1-3.27.3h0a2.83,2.83,0,0,1-.35-.14h0a1.61,1.61,0,0,1-.3-.21C133,492.72,132.73,491.47,132.74,490Z"/><path class="cls-9" d="M114.9,427.18a37.69,37.69,0,0,1,52.81,29.2,37.26,37.26,0,0,1-.06,10.76,12.67,12.67,0,0,1-2,4.42,5.14,5.14,0,0,1-2.63,2h0a1.72,1.72,0,0,1-.37.07h0a1.54,1.54,0,0,1-.37,0c-1-.15-1.85-1.08-2.64-2.37-1.73-2.83-3-7.38-3.78-9.23h0c-.17-.46-.34-.92-.52-1.37l0-.07c-.2-.49-.41-1-.64-1.46-.06-.14-.12-.29-.19-.43l-.19-.38c0-.12-.12-.25-.18-.37l-.25-.5c-.17-.32-.34-.64-.52-1s-.2-.36-.31-.54c-.28-.5-.57-1-.88-1.45-.09-.15-.19-.3-.29-.44s-.19-.3-.29-.45c-.3-.43-.6-.86-.92-1.28l-.06-.09-.09-.12c-.46-.61-.95-1.21-1.45-1.79s-1-1.09-1.46-1.62l-.2-.2-.07-.08c-.34-.34-.68-.68-1-1l-.11-.1-.13-.12a36.48,36.48,0,0,0-3.18-2.64c-.21-.17-.42-.32-.64-.47l-.62-.44-.11-.07-.36-.23c-.35-.24-.7-.46-1.06-.68l-.54-.33c-.28-.17-.56-.33-.85-.48l-.33-.18c-.38-.22-.78-.42-1.18-.62a36.55,36.55,0,0,0-5.5-2.22l-.1,0c-.72-.23-1.45-.43-2.19-.61-.34-.09-.69-.17-1-.24l-.84-.17-.15,0c-.61-.12-1.22-.22-1.84-.3a37.65,37.65,0,0,0-10.28,0l-1.1.18h-.59l-.11,0a4.73,4.73,0,0,1-2.58-1.18,4.94,4.94,0,0,1-1.4-2.73h0a3.91,3.91,0,0,1,1-3.26A13.37,13.37,0,0,1,114.9,427.18Z"/><path class="cls-10" d="M109.46,433.61l.06,0a37.78,37.78,0,0,1,9.76-3.13c.46-.08.92-.16,1.38-.22a37.69,37.69,0,0,1,42.66,41.18c0,.43-.1.87-.16,1.3,0,.27-.08.55-.12.81a1.72,1.72,0,0,1-.37.07h0a1.54,1.54,0,0,1-.37,0c-1-.15-1.85-1.08-2.64-2.37-1.73-2.83-3-7.38-3.78-9.23h0c-.17-.46-.34-.92-.52-1.37l0-.07c-.2-.49-.41-1-.64-1.46a.69.69,0,0,0,0-.13c-.05-.1-.1-.2-.14-.3l-.19-.38-.18-.37-.25-.5c-.17-.33-.35-.64-.52-1s-.2-.36-.31-.54-.36-.62-.55-.92-.22-.35-.33-.53-.19-.3-.29-.44-.19-.3-.29-.45c-.3-.43-.6-.86-.92-1.28l-.06-.09-.09-.12-.25-.32c-.39-.51-.79-1-1.2-1.47s-.84-.95-1.27-1.41l-.19-.21-.2-.2-.07-.08c-.21-.22-.43-.42-.64-.63s-.26-.25-.39-.38l-.11-.1-.13-.12-.59-.53-.43-.38-.2-.17c-.21-.18-.42-.36-.64-.53l-.59-.48-.73-.55-.64-.47-.62-.44-.11-.07-.36-.23c-.35-.24-.7-.46-1.06-.68l-.54-.33c-.28-.17-.56-.33-.85-.48l-.33-.18-.34-.18c-.28-.15-.55-.3-.84-.44l-.71-.34c-.28-.13-.55-.26-.84-.38l-.43-.19-.34-.15-.78-.31-.81-.31-.65-.22-.94-.32-.1,0-.89-.26-.57-.16-.73-.19-.65-.15-.39-.09-.84-.17-.15,0c-.24,0-.46-.09-.69-.12s-.38-.06-.57-.09l-.58-.09-.82-.1-.45,0c-.35,0-.72-.08-1.08-.1l-.71-.05-1.07,0h-.73c-.36,0-.73,0-1.1,0h-.7l-1.21.08-.47,0-.18,0c-.59.05-1.17.11-1.76.19l-1.1.18h-.59l-.11,0a4.73,4.73,0,0,1-2.58-1.18A4.94,4.94,0,0,1,109.46,433.61Z"/><path class="cls-8" d="M159.65,471.19a6.12,6.12,0,0,0,6,.37,5.14,5.14,0,0,1-2.63,2h0a1.72,1.72,0,0,1-.37.07h0a1.54,1.54,0,0,1-.37,0C161.32,473.41,160.44,472.48,159.65,471.19Z"/><path class="cls-11" d="M161.91,520.28H114.09a9,9,0,0,1-8.92-7.69l-7.44-50.25h80.54l-7.44,50.25A9,9,0,0,1,161.91,520.28Z"/><path class="cls-12" d="M184.57,457.31h-1.42a44.59,44.59,0,0,0-89.18,0H92.54a46,46,0,1,1,92,0Z"/><rect class="cls-13" x="89.53" y="452.27" width="98.06" height="10.07" rx="3.52"/><path class="cls-7" d="M167.67,422.35l-5-.74.82-5.57c.08-.57,1-.92,2-.77l1.31.19c1,.15,1.78.74,1.7,1.32Z"/><path class="cls-8" d="M167.67,422.35l-2.51-.37,1-6.61.66.09c1,.15,1.78.74,1.7,1.32Z"/><path class="cls-9" d="M168.79,425.16a28.78,28.78,0,0,1-46.31,20.17,9.92,9.92,0,0,1-2.21-3,3.87,3.87,0,0,1-.32-2.48v0h0a2.14,2.14,0,0,1,.09-.27h0a1.14,1.14,0,0,1,.15-.23,3.38,3.38,0,0,1,2.57-.87c2.53-.1,6,.74,7.55.93h0c.36.06.73.12,1.1.16h.06l1.21.13.36,0h.32l.31,0,.43,0,.83,0h.48c.43,0,.86,0,1.29,0l.4,0,.41,0c.4,0,.8-.08,1.2-.13h.19q.87-.12,1.74-.3c.54-.1,1.08-.23,1.62-.36l.2-.06.09,0,1-.31.11,0,.13,0a28.45,28.45,0,0,0,3-1.13l.55-.25.52-.25.09-.05.29-.15.84-.45.43-.24.63-.38.25-.16c.28-.17.57-.36.85-.55a28.05,28.05,0,0,0,3.53-2.83l.06-.05c.42-.4.83-.81,1.22-1.23l.55-.6c.15-.16.29-.33.43-.5l.08-.09c.3-.36.6-.73.88-1.11a28.75,28.75,0,0,0,3.84-6.85c.1-.26.2-.53.29-.8h0l.11-.19.08-.12,0-.06,0-.07a3.64,3.64,0,0,1,1.76-1.28,3.71,3.71,0,0,1,2.33.1h0a3,3,0,0,1,1.79,1.9A10.38,10.38,0,0,1,168.79,425.16Z"/><path class="cls-10" d="M166.54,419.15v.05a29.24,29.24,0,0,1-1.56,7.66c-.12.33-.24.67-.37,1a28.77,28.77,0,0,1-37.29,16.25,28.42,28.42,0,0,1-6.06-3.27l-.8-.58-.5-.39a2.14,2.14,0,0,1,.09-.27h0a1.14,1.14,0,0,1,.15-.23,3.38,3.38,0,0,1,2.57-.87c2.53-.1,6,.74,7.55.93h0c.36.06.73.12,1.1.16h.06l1.21.13h.11l.25,0h.32l.31,0,.43,0,.83,0h.48l.81,0,.48,0,.4,0,.41,0c.4,0,.8-.08,1.2-.13h.19l.31-.05c.48-.07.95-.15,1.43-.25s.94-.2,1.41-.31l.21-.05.2-.06.09,0,.65-.19.4-.12.11,0,.13,0,.57-.2.42-.14.19-.07.58-.23.54-.22.65-.27.55-.25.52-.25.09-.05.29-.15.84-.45.43-.24.63-.38.25-.16.24-.15.61-.4.49-.35.57-.41.28-.22.23-.17.5-.4.51-.42.39-.35.56-.51.06-.05.51-.5.31-.32.4-.41.35-.38.2-.22c.15-.16.29-.33.43-.5l.08-.09.34-.41.27-.35.27-.35.38-.51c.06-.1.13-.19.19-.28s.32-.45.47-.68l.3-.46c.14-.24.29-.47.43-.7s.18-.32.28-.48l.4-.74c.08-.15.17-.31.24-.47s.28-.55.41-.83l.15-.32.06-.13c.19-.41.36-.83.53-1.25.1-.26.2-.53.29-.8h0l.11-.19.08-.12,0-.06,0-.07a3.64,3.64,0,0,1,1.76-1.28A3.71,3.71,0,0,1,166.54,419.15Z"/><path class="cls-8" d="M122.78,438.49a4.68,4.68,0,0,0-2.51,3.88,3.87,3.87,0,0,1-.32-2.48v0h0a2.14,2.14,0,0,1,.09-.27h0a1.14,1.14,0,0,1,.15-.23A3.38,3.38,0,0,1,122.78,438.49Z"/><path class="cls-9" d="M170.1,423a28.78,28.78,0,0,1-28.85,41.46,9.83,9.83,0,0,1-3.43-1.36,3.87,3.87,0,0,1-1.58-1.94v0h0a1.57,1.57,0,0,1-.06-.28h0a.88.88,0,0,1,0-.28,3.36,3.36,0,0,1,1.73-2.09c2.1-1.41,5.53-2.53,6.92-3.17h0c.34-.13.68-.28,1-.43l.06,0c.36-.17.73-.34,1.09-.53l.32-.16.28-.15.28-.15.38-.21.71-.42.4-.26c.37-.23.73-.46,1.08-.71l.33-.24.33-.24c.32-.24.64-.48,1-.73l.07-.06.08-.06c.46-.38.9-.77,1.33-1.17s.8-.76,1.19-1.16l.14-.16.06-.06c.25-.26.5-.54.74-.81l.07-.09.09-.1a27.32,27.32,0,0,0,1.92-2.51,5.39,5.39,0,0,0,.33-.5c.11-.16.22-.32.32-.49l.05-.08.17-.28c.17-.28.33-.55.48-.83l.24-.43c.11-.22.23-.43.34-.66l.13-.26c.15-.29.29-.6.43-.91a27.67,27.67,0,0,0,1.52-4.26.31.31,0,0,0,0-.08c.15-.56.29-1.12.4-1.69.06-.26.11-.53.15-.8s.08-.43.11-.65a.5.5,0,0,1,0-.12c.06-.46.12-.93.16-1.41a28.75,28.75,0,0,0-.32-7.83c0-.28-.11-.56-.17-.84h0v-.45a.25.25,0,0,1,0-.08,3.49,3.49,0,0,1,.82-2,3.73,3.73,0,0,1,2-1.15h0a3,3,0,0,1,2.52.68A10.23,10.23,0,0,1,170.1,423Z"/><path class="cls-10" d="M165,419l0,.05a28.6,28.6,0,0,1,2.69,7.34c.08.35.14.7.21,1.05a28.76,28.76,0,0,1-23.22,33.39,29.08,29.08,0,0,1-6.87.41c-.33,0-.67-.05-1-.09l-.63-.06a1.57,1.57,0,0,1-.06-.28h0a.88.88,0,0,1,0-.28,3.36,3.36,0,0,1,1.73-2.09c2.1-1.41,5.53-2.53,6.92-3.17h0c.34-.13.68-.28,1-.43l.06,0c.36-.17.73-.34,1.09-.53l.1,0,.22-.12.28-.15.28-.15.38-.21.71-.42.4-.26.68-.44.4-.27.33-.24.33-.24c.32-.24.64-.48,1-.73l.07-.06.08-.06.24-.21c.38-.31.74-.63,1.09-1s.69-.66,1-1l.16-.15.14-.16.06-.06c.16-.16.31-.33.46-.5s.19-.21.28-.31l.07-.09.09-.1.39-.47.28-.34.12-.16c.13-.16.26-.33.38-.5s.23-.31.35-.47l.4-.57.33-.5.32-.49.05-.08.17-.28c.17-.28.33-.55.48-.83l.24-.43c.11-.22.23-.43.34-.66l.13-.26L160,441c.1-.22.21-.43.31-.65s.16-.37.23-.56.19-.43.27-.65.09-.22.13-.33.07-.18.1-.27.15-.4.22-.6l.21-.63.15-.5c.07-.24.15-.48.21-.72a.31.31,0,0,0,0-.08c.06-.23.12-.46.17-.69s.08-.29.11-.44l.12-.56.09-.5.06-.3c0-.21.08-.43.11-.65a.5.5,0,0,1,0-.12c0-.18,0-.35.07-.53s0-.29,0-.43,0-.3,0-.45,0-.42.05-.63,0-.22,0-.34,0-.55,0-.82,0-.37,0-.55v-.82c0-.18,0-.37,0-.55s0-.56,0-.84,0-.35,0-.53,0-.62-.09-.92c0-.12,0-.24,0-.36s0-.09,0-.14c-.06-.45-.12-.89-.2-1.33,0-.28-.11-.56-.17-.84h0v-.45a.25.25,0,0,1,0-.08,3.49,3.49,0,0,1,.82-2A3.73,3.73,0,0,1,165,419Z"/><path class="cls-8" d="M137.92,458.43a4.65,4.65,0,0,0-.1,4.62,3.87,3.87,0,0,1-1.58-1.94v0h0a1.57,1.57,0,0,1-.06-.28h0a.88.88,0,0,1,0-.28A3.36,3.36,0,0,1,137.92,458.43Z"/><path class="cls-14" d="M2.08,265.88S-28,234.69,140.79,138s184-58.19,184-58.19,19.83,39-193.29,152.37C17.09,293,2.08,265.88,2.08,265.88Z"/><path class="cls-3" d="M103.71,240.4a75.08,75.08,0,0,0,11.19,16.25l.93,1a100.76,100.76,0,0,1,14,19.33c-3.6,1.51-8.19,2.11-13.94,1.16-15.14-2.5-25.83-18.93-20.22-30.2a14.81,14.81,0,0,1,8-7.61Z"/><path class="cls-4" d="M103.71,240.4a75.08,75.08,0,0,0,11.19,16.25l.93,1a100.76,100.76,0,0,1,14,19.33c-3.6,1.51-8.19,2.11-13.94,1.16-15.14-2.5-25.83-18.93-20.22-30.2a14.81,14.81,0,0,1,8-7.61Z"/><path class="cls-3" d="M257.62,149c.41,5.81-.6,10.32-2.45,13.77A100.61,100.61,0,0,1,237.23,147l-.91-1a74.79,74.79,0,0,0-15.21-12.68,14.88,14.88,0,0,1,8.32-7.28C241.17,121.52,256.54,133.68,257.62,149Z"/><path class="cls-4" d="M257.62,149c.41,5.81-.6,10.32-2.45,13.77A100.61,100.61,0,0,1,237.23,147l-.91-1a74.79,74.79,0,0,0-15.21-12.68,14.88,14.88,0,0,1,8.32-7.28C241.17,121.52,256.54,133.68,257.62,149Z"/><path class="cls-3" d="M236.51,180.11a21.24,21.24,0,0,0,10.55,15c4.25,2.34,8.79,5.25,11.4,8.11,19.07,20.94,14.7,56-9.77,78.27s-59.77,23.4-78.85,2.47c-2.6-2.86-5.07-7.65-7-12.1a21.23,21.23,0,0,0-14-11.9,33.72,33.72,0,0,1-4.37-1.52,32.46,32.46,0,0,1-11.36-8.06c-12.67-13.9-11.1-36,3.5-49.25a37,37,0,0,1,16.66-8.77,21.28,21.28,0,0,0,15.55-14.17,36.88,36.88,0,0,1,10.27-15.77c14.6-13.3,36.7-12.82,49.37,1.08a32.56,32.56,0,0,1,7,12.06A35.14,35.14,0,0,1,236.51,180.11Z"/><path class="cls-4" d="M236.51,180.11a21.24,21.24,0,0,0,10.55,15c4.25,2.34,8.79,5.25,11.4,8.11,19.07,20.94,14.7,56-9.77,78.27s-59.77,23.4-78.85,2.47c-2.6-2.86-5.07-7.65-7-12.1a21.23,21.23,0,0,0-14-11.9,33.72,33.72,0,0,1-4.37-1.52,32.46,32.46,0,0,1-11.36-8.06c-12.67-13.9-11.1-36,3.5-49.25a37,37,0,0,1,16.66-8.77,21.28,21.28,0,0,0,15.55-14.17,36.88,36.88,0,0,1,10.27-15.77c14.6-13.3,36.7-12.82,49.37,1.08a32.56,32.56,0,0,1,7,12.06A35.14,35.14,0,0,1,236.51,180.11Z"/><path class="cls-3" d="M228.17,118.65c-7.1,2.74-10.28,7.6-11.67,11.95a86.52,86.52,0,0,0-8.1-3.94q-3-1.29-6.18-2.37c-21.4-7.37-46-7.26-66.17,1.7l-7.9-8.06-4.53,15.15-1.33,1c-.8.61-1.58,1.23-2.36,1.88l-7.2-5-2.11-1.45c-.5.46-1,.92-1.41,1.39-8.64,9.26-5.56,22-5,24.07-10.79,19.26-13.17,43.73-7.82,65.71.51,2.15,1.11,4.28,1.78,6.37a89.78,89.78,0,0,0,3.17,8.44l-.57.13c-4.31,1.09-9.17,3.86-12.41,10.38-7.13,14.31,6.44,35.18,25.68,38.36,7.84,1.29,14,.32,18.69-1.93.14.26.29.51.43.76a58.37,58.37,0,0,0,7.45,10.18c19.69,21.61,52.58,25.68,82.87,13.05a102.85,102.85,0,0,0,20.13-11.22,109.11,109.11,0,0,0,9.37-7.5l.7-.64c35.86-32.66,43.36-82.81,16.77-112a58.72,58.72,0,0,0-9.45-8.36l-.71-.5c2.67-4.48,4.21-10.5,3.65-18.43C262.6,128.33,243.08,112.88,228.17,118.65ZM103.71,240.4a75.08,75.08,0,0,0,11.19,16.25l.93,1a100.76,100.76,0,0,1,14,19.33c-3.6,1.51-8.19,2.11-13.94,1.16-15.14-2.5-25.83-18.93-20.22-30.2a14.81,14.81,0,0,1,8-7.61Zm131.7-64.79a35.14,35.14,0,0,1,1.1,4.5,21.24,21.24,0,0,0,10.55,15c4.25,2.34,8.79,5.25,11.4,8.11,19.07,20.94,14.7,56-9.77,78.27s-59.77,23.4-78.85,2.47c-2.6-2.86-5.07-7.65-7-12.1a21.23,21.23,0,0,0-14-11.9,33.72,33.72,0,0,1-4.37-1.52,32.46,32.46,0,0,1-11.36-8.06c-12.67-13.9-11.1-36,3.5-49.25a37,37,0,0,1,16.66-8.77,21.28,21.28,0,0,0,15.55-14.17,36.88,36.88,0,0,1,10.27-15.77c14.6-13.3,36.7-12.82,49.37,1.08A32.56,32.56,0,0,1,235.41,175.61ZM257.62,149c.41,5.81-.6,10.32-2.45,13.77A100.61,100.61,0,0,1,237.23,147l-.91-1a74.79,74.79,0,0,0-15.21-12.68,14.88,14.88,0,0,1,8.32-7.28C241.17,121.52,256.54,133.68,257.62,149Z"/><rect class="cls-15" x="193.54" y="230.96" width="5.76" height="13.08" rx="2.88" transform="translate(30.27 497.07) rotate(-107.79)"/><rect class="cls-15" x="206.8" y="218.87" width="5.76" height="13.08" rx="2.88" transform="translate(314.06 515.03) rotate(-156.89)"/><path class="cls-15" d="M198.07,197a1.46,1.46,0,0,1-.78-.22,1.5,1.5,0,0,1-.5-2.06l.46-.75A35.35,35.35,0,0,1,212,180.63l.63-.31a1.5,1.5,0,1,1,1.31,2.7l-.62.3a32.25,32.25,0,0,0-13.47,12.22l-.46.74A1.49,1.49,0,0,1,198.07,197Z"/><path class="cls-15" d="M152.53,238.49a1.62,1.62,0,0,1-.78-.22,1.51,1.51,0,0,1-.49-2.07l.45-.74a35.34,35.34,0,0,1,14.72-13.35l.63-.3a1.5,1.5,0,0,1,1.31,2.7l-.63.3A32.41,32.41,0,0,0,154.27,237l-.46.75A1.5,1.5,0,0,1,152.53,238.49Z"/><ellipse class="cls-15" cx="227.97" cy="260.16" rx="9.88" ry="11.08" transform="matrix(0.74, -0.67, 0.67, 0.74, -115.76, 221.39)"/><polygon class="cls-14" points="264.49 149.02 86.47 253.97 73.16 223.12 91.85 185.7 205.82 119.47 255.9 105.86 264.49 149.02"/><path class="cls-14" d="M60.68,130.44,87.89,187.6l125.62-60.3L145.4,57.94s-15.51-14.7-31.78,3.63S60.68,130.44,60.68,130.44Z"/><path class="cls-3" d="M205.82,119.46C188.64,127.91,169.13,138.27,147,151c-23.32,13.36-42.83,25.48-59.16,36.42l-10-20.91C99.46,154,121,141.35,142.28,128.27c14.63-9,30.31-17.78,45.07-27.61Z"/><path class="cls-2" d="M351,548.88l-.57,0a4.29,4.29,0,0,1-3.69-4.82l41.88-317.1a4.29,4.29,0,0,1,8.5,1.12L355.24,545.16A4.28,4.28,0,0,1,351,548.88Z"/><path class="cls-2" d="M439.57,230.3h-93.4a4.28,4.28,0,0,1-4.1-5.52l30.38-101.24a4.29,4.29,0,0,1,8.22,2.46l-28.73,95.72h84.44l29.47-98.18a4.29,4.29,0,0,1,8.22,2.46L443.68,227.24A4.3,4.3,0,0,1,439.57,230.3Z"/><path class="cls-2" d="M392.87,230.3a4.41,4.41,0,0,1-1.23-.18,4.28,4.28,0,0,1-2.87-5.34l30.38-101.24a4.29,4.29,0,0,1,8.22,2.46L397,227.24A4.29,4.29,0,0,1,392.87,230.3Z"/><path class="cls-16" d="M344.26,152.73a27.22,27.22,0,0,1,42.13-27A27.21,27.21,0,0,1,433,140.4a27.2,27.2,0,0,1,37.87,35.34A34.4,34.4,0,0,1,439.71,237a27.21,27.21,0,0,1-48.78-5.58,27.21,27.21,0,0,1-43.75-26,27.21,27.21,0,0,1-19.33-38.69A27.11,27.11,0,0,1,344.26,152.73Z"/><circle class="cls-16" cx="314.97" cy="161.08" r="8.01" transform="translate(130.06 462.68) rotate(-85.57)"/><circle class="cls-16" cx="299.22" cy="170.7" r="5.08"/><path class="cls-16" d="M294.61,186.68a3.74,3.74,0,1,1,.39-5.27A3.73,3.73,0,0,1,294.61,186.68Z"/><path class="cls-2" d="M400.83,169.84q-.39.81-4.15,2.53t-10.84,4.34l9.33,4.57q.49.24.18,1.71a17.1,17.1,0,0,1-1.46,3.83,16,16,0,0,1-2.6,3.91c-1,1-1.75,1.4-2.37,1.09l-21.55-10.55c-.86-.42-1.05-1.57-.58-3.46A29.78,29.78,0,0,1,369,172q.33-.66,4.26-2.41t11.53-4.62l-8.59-4.2q-1.19-.58.69-4.43a24.44,24.44,0,0,1,3.08-4.83c1.17-1.42,2.05-2,2.64-1.7l20.4,10C404.47,160.49,403.76,163.86,400.83,169.84Z"/><path class="cls-2" d="M422.23,187.68c-.23.47-1.42,1.2-3.59,2.19s-5.3,2.26-9.4,3.77l8.09,4c.28.14.33.63.15,1.48a14.74,14.74,0,0,1-1.27,3.32,13.87,13.87,0,0,1-2.25,3.39c-.83.89-1.52,1.21-2,.94l-18.68-9.14c-.74-.36-.91-1.36-.5-3a25.22,25.22,0,0,1,1.88-5.07c.19-.38,1.42-1.08,3.69-2.09s5.6-2.35,10-4l-7.44-3.64q-1-.51.6-3.85a21,21,0,0,1,2.67-4.18c1-1.23,1.77-1.72,2.29-1.47l17.67,8.65Q426,179.9,422.23,187.68Z"/><path class="cls-2" d="M442.82,197.82c-.19.39-1.21,1-3,1.85s-4.49,1.9-7.95,3.18l6.84,3.36c.24.11.28.53.13,1.25a13.29,13.29,0,0,1-1.07,2.81,11.74,11.74,0,0,1-1.91,2.87c-.7.75-1.28,1-1.74.79l-15.8-7.73c-.63-.31-.77-1.16-.42-2.54a21.28,21.28,0,0,1,1.59-4.29q.24-.48,3.12-1.77t8.46-3.38l-6.3-3.09c-.58-.28-.41-1.37.51-3.25a17.52,17.52,0,0,1,2.25-3.54c.86-1,1.51-1.45,1.94-1.24l15,7.32Q446,191.23,442.82,197.82Z"/></svg>
